<?xml version="1.0" standalone="no"?>
<!DOCTYPE svg PUBLIC "-//W3C//DTD SVG 20010904//EN"
 "http://www.w3.org/TR/2001/REC-SVG-20010904/DTD/svg10.dtd">
<svg version="1.0" xmlns="http://www.w3.org/2000/svg"
 width="452.000000pt" height="102.000000pt" viewBox="0 0 452.000000 102.000000"
 preserveAspectRatio="xMidYMid meet">
<metadata>
Created by potrace 1.16, written by Peter Selinger 2001-2019
</metadata>
<g transform="translate(0.000000,102.000000) scale(0.100000,-0.100000)"
fill="#000000" stroke="none">
<path d="M870 870 c0 -5 -9 -10 -20 -10 -11 0 -40 -10 -65 -22 -45 -22 -45
-22 -45 -74 0 -42 4 -53 18 -56 21 -5 -57 -48 -88 -48 -12 0 -20 -7 -20 -16 0
-17 33 -16 73 1 13 5 17 2 17 -13 0 -13 -8 -21 -25 -24 -14 -3 -25 -1 -25 3 0
5 -9 9 -20 9 -13 0 -20 -7 -20 -20 0 -12 -10 -25 -25 -32 -13 -6 -23 -14 -20
-17 2 -4 -5 -8 -16 -8 -16 -2 -19 5 -19 46 0 44 2 48 35 64 20 9 47 17 60 17
23 0 25 4 25 45 l0 45 -40 0 -40 0 0 -42 c0 -32 -3 -39 -10 -28 -6 10 -10 11
-10 3 0 -7 -4 -13 -10 -13 -5 0 -10 17 -10 39 0 34 4 40 32 52 l31 13 -27 9
c-22 7 -39 4 -77 -14 -27 -12 -49 -26 -49 -31 0 -4 -7 -8 -15 -8 -20 0 -105
-42 -105 -52 0 -4 -7 -8 -15 -8 -20 0 -105 -42 -105 -52 0 -4 -7 -8 -15 -8 -8
0 -35 -10 -60 -22 -45 -22 -45 -22 -45 -75 0 -51 1 -53 28 -53 l27 -1 -27 -15
c-25 -13 -28 -20 -28 -69 0 -53 1 -55 28 -55 l27 -1 -27 -15 c-25 -13 -28 -20
-28 -69 0 -53 1 -55 28 -55 l27 -1 -27 -15 c-25 -13 -28 -20 -28 -69 l0 -55
45 0 45 0 0 55 c0 54 1 55 40 75 l40 20 0 -45 c0 -38 3 -45 20 -45 18 0 20 7
20 54 0 30 5 58 10 61 6 3 10 -3 10 -14 0 -16 7 -21 28 -21 l27 -1 -24 -13
c-31 -17 -38 -35 -33 -86 l4 -40 49 0 49 0 0 55 c0 54 1 55 40 75 l40 20 0
-45 c0 -38 3 -45 20 -45 18 0 20 7 20 55 0 43 4 56 19 65 28 15 31 13 31 -20
0 -20 5 -30 15 -30 8 0 15 -4 15 -9 0 -5 -7 -11 -15 -15 -11 -4 -15 -21 -15
-61 l0 -55 45 0 45 0 0 55 c0 54 1 55 40 75 22 11 40 27 40 35 0 18 -24 20
-42 3 -28 -27 -38 -19 -38 30 0 45 2 49 35 65 20 9 38 17 40 17 3 0 5 -20 5
-45 0 -25 5 -45 10 -45 6 0 10 12 10 28 1 22 9 31 50 51 39 19 50 30 50 48 0
16 6 23 20 23 17 0 20 7 20 45 0 40 -3 45 -22 46 -18 1 -17 3 7 8 17 4 45 15
63 25 l32 17 0 -56 c0 -49 -3 -57 -25 -67 -34 -15 -32 -38 3 -39 l27 -1 -27
-10 c-26 -9 -28 -13 -28 -69 l0 -59 45 0 45 0 0 55 c0 53 1 55 38 74 l37 20
-37 1 -38 0 0 48 c0 47 1 49 43 69 l42 22 -42 0 -43 1 0 48 c0 47 1 49 43 69
l42 22 -42 0 -43 1 0 48 c0 47 1 49 43 69 l42 22 -43 0 c-64 1 -82 -12 -82
-59 0 -36 -3 -41 -41 -60 -22 -12 -50 -19 -62 -17 -22 4 -22 4 1 6 19 1 22 6
22 45 0 38 -3 45 -22 49 -22 4 -22 4 2 6 14 1 32 6 40 12 11 8 6 9 -22 7 -21
-2 -38 0 -38 4 0 4 9 8 20 8 17 0 20 7 20 45 l0 45 -40 0 c-22 0 -40 -4 -40
-10z"/>
</g>
</svg>
